<!--?xml version="1.0" encoding="utf-8"?-->
<!-- Generator: Adobe Illustrator 16.0.0, SVG Export Plug-In . SVG Version: 6.00 Build 0)  -->

<svg version="1.1" id="圖層_1" xmlns="http://www.w3.org/2000/svg" xmlns:xlink="http://www.w3.org/1999/xlink" x="0px" y="0px" width="841.891px" height="595.279px" viewBox="0 0 841.891 595.279" enable-background="new 0 0 841.891 595.279" xml:space="preserve" style="">
<g>
	<g>
		<path fill="#FFF100" stroke="#DB2018" stroke-miterlimit="10" d="M32.08,296.23v-5.511h5.382c0.254,0,0.494,0,0.494-0.55V276.29
			H20.023v13.879c0,0.343,0,0.55,0.887,0.55h4.705v5.511H7.734v-5.511h5.042c0.663,0,0.663-0.358,0.663-0.55v-32.481
			c0-0.944-0.269-0.944-0.718-0.944H7.789v-5.512h17.826v5.512h-4.705c-0.731,0-0.887,0.08-0.887,0.944v13.089h17.933v-13.371
			c0-0.585-0.144-0.661-0.718-0.661h-5.157v-5.512h18.334v5.512h-4.817c-1.001,0-1.001,0.208-1.001,0.661v32.764
			c0,0.332,0,0.55,0.945,0.55h4.873v5.51H32.08L32.08,296.23z" class="QARsFQna_0"></path>
		<path fill="#ED6B1A" stroke="#DB2018" stroke-miterlimit="10" d="M48.533,253.111v1.751h-2.936c-2.035,0-2.882,1.018-2.882,2.543
			v32.764c0,1.469,0.904,2.429,2.825,2.429h2.993v1.751H33.959v-1.751h3.503c1.524,0,2.374-1.072,2.374-2.429v-15.76H18.142v15.76
			c0,2.148,1.808,2.429,2.767,2.429h2.825v1.751H9.613v-1.751h3.163c1.355,0,2.542-0.849,2.542-2.429v-32.481
			c0-2.205-1.355-2.826-2.599-2.826H9.67v-1.751h14.064v1.751h-2.825c-1.637,0-2.767,0.792-2.767,2.826v14.968h21.693v-15.251
			c0-1.017-0.453-2.543-2.599-2.543h-3.278v-1.751H48.533 M52.293,249.351h-3.76H33.959h-3.759v3.76v1.751v3.758h3.759h2.117v10.278
			H21.901V258.62h1.833h3.759v-3.758v-1.751v-3.76h-3.759H9.668H5.909v3.76v1.751v3.758h3.759h1.89v30.219H9.612H5.853v3.759v1.751
			v3.759h3.759h14.121h3.759v-3.759v-1.751v-3.759h-3.759h-1.833v-10.673h14.175v10.673h-2.117h-3.759v3.759v1.751v3.759h3.759
			h14.575h3.76v-3.759v-1.751v-3.759h-3.76h-2.059V258.62h2.059h3.76v-3.758v-1.751V249.351L52.293,249.351z" class="QARsFQna_1"></path>
	</g>
	<g>
		<path fill="#FFF100" stroke="#DB2018" stroke-miterlimit="10" d="M64.688,297.302c-9.354,0-14.25-7.936-14.25-15.775
			c0-10.3,6.958-16.454,13.685-16.454c7.545,0,13.232,6.516,13.232,15.153v1.88H57.09c0.248,5.309,3.886,9.686,8.163,9.686
			c3.416,0,5.412-2.375,7.859-5.726l1.08-1.479l4.614,3.195l-1.226,1.569C73.276,294.848,70.395,297.302,64.688,297.302z
			 M70.436,276.596c-0.323-1.918-0.916-3.309-1.792-4.216c-1.148-1.236-2.578-1.799-4.524-1.799c-2.803,0-5.316,2.428-6.459,6.014
			L70.436,276.596L70.436,276.596z" class="QARsFQna_2"></path>
		<path fill="#ED6B1A" stroke="#DB2018" stroke-miterlimit="10" d="M64.121,266.951c6.214,0,11.354,5.309,11.354,13.274h-20.28
			v1.301c0,6.271,4.35,12.145,10.055,12.145c4.35,0,6.779-2.937,9.376-6.499l1.469,1.018c-4.462,5.705-6.835,7.23-11.411,7.23
			c-8.7,0-12.372-7.682-12.372-13.896C52.317,272.655,58.19,266.951,64.121,266.951 M55.309,278.475h17.23
			c-0.227-3.333-1.016-5.82-2.542-7.4c-1.469-1.582-3.388-2.373-5.875-2.373C59.829,268.703,56.156,272.712,55.309,278.475
			 M64.121,263.192c-7.65,0-15.564,6.859-15.564,18.334c0,8.773,5.541,17.656,16.13,17.656c6.451,0,9.775-2.796,14.371-8.674
			l2.454-3.139l-3.276-2.269l-1.469-1.019l-0.143-0.099h2.608v-3.758C79.234,270.515,72.738,263.192,64.121,263.192L64.121,263.192z
			 M60.624,274.717c0.952-1.397,2.2-2.255,3.499-2.255c1.792,0,2.583,0.592,3.121,1.171l0.024,0.027l0.025,0.023
			c0.25,0.261,0.473,0.607,0.666,1.034H60.624L60.624,274.717z M59.256,283.984h13.048l-0.71,0.973
			c-2.552,3.494-3.997,4.956-6.343,4.956C62.532,289.913,60.085,287.339,59.256,283.984L59.256,283.984z" class="QARsFQna_3"></path>
	</g>
	<g>
		<path fill="#FFF100" stroke="#DB2018" stroke-miterlimit="10" d="M77.946,296.23v-5.511h5.213c0.199,0,0.331-0.018,0.409-0.033
			c0.028-0.175,0.028-0.463,0.028-0.572v-31.381c-0.462-0.038-1.214-0.071-2.415-0.071h-1.878v-5.508h1.878
			c1.679,0,3.839-0.718,6.253-2.075l2.8-1.575v40.609c0,0.302,0.021,0.493,0.042,0.604c0.017,0.001,5.664,0.001,5.664,0.001v5.509
			H77.946V296.23z" class="QARsFQna_4"></path>
		<path fill="#ED6B1A" stroke="#DB2018" stroke-miterlimit="10" d="M88.356,252.715v37.399c0,1.299,0.281,2.485,1.977,2.485h3.728
			v1.751H79.825v-1.751h3.333c2.26,0,2.315-1.47,2.315-2.485v-31.748c0-0.565-0.056-0.961-0.339-1.187
			c-0.282-0.283-1.639-0.397-3.954-0.397v-1.75C83.216,255.031,85.644,254.241,88.356,252.715 M92.114,246.29l-5.599,3.149
			c-2.102,1.182-3.997,1.833-5.333,1.833h-3.758v3.758v1.75v3.759h3.758c0.189,0,0.369,0,0.535,0.002v28.295h-1.889h-3.758v3.759
			v1.751v3.759h3.758h14.234h3.759v-3.759v-1.751v-3.759h-3.759h-1.946v-36.123L92.114,246.29L92.114,246.29L92.114,246.29z" class="QARsFQna_5"></path>
	</g>
	<g>
		<path fill="#FFF100" stroke="#DB2018" stroke-miterlimit="10" d="M95.852,296.23v-5.511h5.213c0.198,0,0.329-0.018,0.408-0.033
			c0.027-0.175,0.027-0.463,0.027-0.572v-31.381c-0.462-0.038-1.211-0.071-2.413-0.071h-1.879v-5.508h1.879
			c1.677,0,3.838-0.719,6.253-2.075l2.801-1.574v40.61c0,0.302,0.022,0.492,0.042,0.604c0.018,0.001,5.665,0.001,5.665,0.001v5.511
			H95.854v0.001H95.852z" class="QARsFQna_6"></path>
		<path fill="#ED6B1A" stroke="#DB2018" stroke-miterlimit="10" d="M106.261,252.715v37.399c0,1.299,0.283,2.485,1.978,2.485h3.728
			v1.751H97.733v-1.751h3.333c2.26,0,2.314-1.47,2.314-2.485v-31.748c0-0.565-0.054-0.961-0.34-1.187
			c-0.283-0.283-1.639-0.397-3.955-0.397v-1.75C101.121,255.031,103.55,254.241,106.261,252.715 M110.022,246.29l-5.602,3.149
			c-2.101,1.182-3.996,1.833-5.332,1.833H95.33v3.758v1.75v3.759h3.758c0.189,0,0.368,0,0.533,0.002v28.295h-1.889h-3.759v3.759
			v1.751v3.759h3.759h14.233h3.759v-3.759v-1.751v-3.759h-3.759h-1.946v-36.123v-6.424H110.022z" class="QARsFQna_7"></path>
	</g>
	<g>
		<path fill="#FFF100" stroke="#DB2018" stroke-miterlimit="10" d="M128.857,297.414c-10.103,0-14.704-8.266-14.704-15.946
			c0-12.154,8.794-16.566,14.704-16.566c6.916,0,14.363,5.183,14.363,16.566C143.22,289.396,138.288,297.414,128.857,297.414z
			 M128.857,270.469c-2.202,0-4.042,0.835-5.622,2.556c-1.425,1.604-2.159,4.455-2.159,8.444c0,2.436,0.56,10.38,7.781,10.38
			c7.029,0,7.384-8.646,7.384-10.38c0-4.01-0.708-6.891-2.105-8.568C132.734,271.271,131,270.469,128.857,270.469z" class="QARsFQna_8"></path>
		<path fill="#ED6B1A" stroke="#DB2018" stroke-miterlimit="10" d="M128.857,266.782c6.44,0,12.484,4.802,12.484,14.687
			c0,6.271-3.559,14.067-12.484,14.067c-9.435,0-12.824-8.021-12.824-14.067C116.032,270.622,123.773,266.782,128.857,266.782
			 M128.857,293.727c7.4,0,9.263-7.512,9.263-12.258c0-4.462-0.847-7.739-2.541-9.773c-1.751-2.035-4.011-3.108-6.722-3.108
			c-2.767,0-5.083,1.073-7.005,3.164c-1.808,2.034-2.657,5.312-2.657,9.716C119.196,285.592,120.721,293.727,128.857,293.727
			 M128.857,263.023c-8.038,0-16.582,6.465-16.582,18.448c0,8.587,5.19,17.825,16.582,17.825c10.665,0,16.242-8.966,16.242-17.825
			C145.099,268.795,136.68,263.023,128.857,263.023L128.857,263.023z M124.641,274.27c1.231-1.329,2.533-1.924,4.216-1.924
			c1.585,0,2.815,0.574,3.872,1.801c1.041,1.247,1.633,3.863,1.633,7.32c0,1.994-0.396,8.5-5.504,8.5
			c-5.327,0-5.901-5.945-5.901-8.5C122.955,277.125,123.867,275.156,124.641,274.27L124.641,274.27z" class="QARsFQna_9"></path>
	</g>
	<g>
		<path fill="#FFF100" stroke="#DB2018" stroke-miterlimit="10" d="M181.277,297.358c-2.572,0-3.856-1.338-4.515-2.861
			c-2.72,1.899-5.872,2.861-9.382,2.861c-4.394,0-8.826-2.678-8.826-8.656c0-2.889,1.215-5.29,3.612-7.138
			c2.675-2.034,7.076-3.473,13.786-4.489v-2.101c0-2.594-2.562-4.335-4.957-4.335c-2.975,0-4.044,1.694-4.118,2.007l0.005,0.406
			c0.2,1.288-0.029,2.338-0.69,3.127c-0.451,0.54-1.307,1.185-2.826,1.185c-2.384,0-3.632-1.83-3.632-3.632
			c0-4.823,4.945-8.601,11.258-8.601c7.161,0,11.596,5.111,11.596,9.845c0,0,0,13.355,0,13.514l0.198-0.55l4.868,2.606l-0.463,1.485
			C186.043,295.715,184.216,297.358,181.277,297.358z M175.951,282.769c-4.205,0.853-7.256,1.921-9.083,3.184
			c-1.163,0.738-1.675,1.599-1.675,2.747c0,2.056,1.928,3.149,3.318,3.149c2.662,0,6.935-1.962,7.441-4.929L175.951,282.769
			L175.951,282.769z" class="QARsFQna_10"></path>
		<path fill="#ED6B1A" stroke="#DB2018" stroke-miterlimit="10" d="M170.995,267.01c5.988,0,9.716,4.066,9.716,7.964v13.107
			c0,2.088,0,5.646,1.188,5.646c0.509,0,1.186-1.072,1.921-3.106l1.581,0.848c-1.13,3.616-2.657,4.011-4.123,4.011
			c-2.994,0-3.222-2.771-3.391-4.688l-1.637,1.75c-2.487,1.92-5.425,2.938-8.87,2.938c-2.542,0-6.948-1.299-6.948-6.778
			c0-2.261,0.904-4.125,2.881-5.652c2.599-1.975,7.402-3.387,14.517-4.347v-3.73c0-3.787-3.558-6.213-6.835-6.213
			c-4.066,0-5.988,2.597-5.988,3.784v0.678c0.113,0.622,0.341,2.261-1.638,2.261c-1.413,0-1.752-1.073-1.752-1.751
			C161.617,270.227,165.515,267.01,170.995,267.01 M168.509,293.727c3.559,0,8.755-2.54,9.32-6.666v-6.553
			c-5.647,0.961-9.66,2.26-12.032,3.896c-1.695,1.074-2.485,2.542-2.485,4.295C163.312,291.751,166.024,293.727,168.509,293.727
			 M170.995,263.25c-7.366,0-13.137,4.604-13.137,10.48c0,2.802,1.883,4.987,4.518,5.43c-0.482,0.286-0.929,0.587-1.34,0.899
			c-2.863,2.209-4.363,5.194-4.363,8.643c0,7.237,5.549,10.535,10.706,10.535c3.211,0,6.16-0.727,8.795-2.167
			c1.2,1.442,2.902,2.167,5.102,2.167c3.792,0,6.312-2.172,7.712-6.649l0.928-2.968l-2.743-1.467l-1.581-0.848l-1.124-0.601v-11.732
			C184.47,269.336,179.319,263.25,170.995,263.25L170.995,263.25z M168.793,273.171c0.293-0.254,0.952-0.652,2.202-0.652
			c1.285,0,3.078,0.933,3.078,2.455v0.498c-2.271,0.393-4.272,0.837-6.03,1.35C168.551,276.002,168.963,274.81,168.793,273.171
			L168.793,273.171z M168.509,289.97c-0.501,0-1.438-0.436-1.438-1.27c0-0.305,0-0.653,0.737-1.119l0.063-0.041l0.062-0.042
			c0.959-0.661,2.764-1.538,6.14-2.38v1.613C173.653,288.396,170.625,289.97,168.509,289.97L168.509,289.97z" class="QARsFQna_11"></path>
	</g>
	<g>
		<path fill="#FFF100" stroke="#DB2018" stroke-miterlimit="10" d="M202.162,296.23v-5.511h3.913c0.324,0,0.324-0.067,0.324-0.268
			v-15.196c0-1.201-0.367-3.994-3.77-3.994c-2.414,0-5.692,1.942-6.65,4.58c0,0,0,14.848,0.001,14.873l3.951,0.005v5.511h-14.717
			v-5.511h3.575c0.254,0,0.428-0.008,0.548-0.018c0-0.025,0.001-16.958,0.001-16.958c-0.229-0.038-0.611-0.075-1.251-0.075
			c-0.363,0-0.738,0.011-1.113,0.021l-1.93,0.052v-5.561h1.88c1.635,0,3.791-0.752,6.228-2.173l2.827-1.648v3.655
			c2.217-1.517,4.868-2.262,7.949-2.262c5.705,0,9.109,3.554,9.109,9.503v15.196c0,0.18,0.036,0.245,0.036,0.246l0,0
			c0.008,0,0.07,0.022,0.174,0.022h4.139v5.511H202.162L202.162,296.23z" class="QARsFQna_12"></path>
		<path fill="#ED6B1A" stroke="#DB2018" stroke-miterlimit="10" d="M203.927,267.628c5.762,0,7.23,4.068,7.23,7.625v15.197
			c0,1.47,1.018,2.147,2.09,2.147h2.26v1.751h-11.467v-1.751h2.034c1.244,0,2.202-0.791,2.202-2.147v-15.195
			c0-2.88-1.58-5.875-5.649-5.875c-3.164,0-7.4,2.429-8.529,6.158v15.083c0,1.47,0.79,1.977,1.75,1.977h2.203v1.751h-10.959v-1.751
			h1.695c1.356,0,2.429-0.17,2.429-1.977v-17.287c0-1.339-1.435-1.545-3.131-1.545c-0.379,0-0.77,0.01-1.162,0.021v-1.75
			c2.032,0,4.463-0.85,7.175-2.431v4.689l1.807-1.866C197.996,268.532,200.651,267.628,203.927,267.628 M197.86,261.088
			l-5.654,3.295c-2.861,1.668-4.535,1.918-5.28,1.918h-3.758v3.759v1.75v3.858l3.858-0.102c0.145-0.003,0.292-0.008,0.435-0.011
			v13.284h-0.366h-3.759v3.759v1.751v3.759h3.759h10.959h3.758h2.232h11.467h3.758v-3.759v-1.751v-3.759h-3.758h-0.592v-13.583
			c0-7.021-4.21-11.383-10.988-11.383c-2.219,0-4.247,0.347-6.07,1.041V261.088L197.86,261.088z M197.86,276.206
			c0.801-1.732,3.144-3.066,4.77-3.066c0.707,0,1.891,0,1.891,2.115v13.584h-0.478h-3.759h-2.231h-0.194V276.206L197.86,276.206z" class="QARsFQna_13"></path>
	</g>
	<g>
		<path fill="#FFF100" stroke="#DB2018" stroke-miterlimit="10" d="M230.025,296.623c-7.726,0-13.12-6.604-13.12-16.057
			c0-8.171,6.317-14.816,14.081-14.816c2.118,0,4.04,0.432,5.747,1.29v-8.314c-0.73-0.063-1.937-0.063-2.47-0.063h-1.879v-5.508
			h1.879c1.686,0,3.815-0.702,6.325-2.083l2.787-1.536v39.957c0,1.226,0.313,1.226,0.832,1.226h4.196v5.51h-11.669v-1.201
			C234.907,296.147,232.787,296.623,230.025,296.623z M230.986,271.486c-3.558,0-7.159,3.118-7.159,9.081
			c0,3.834,1.461,10.323,6.934,10.323c3.092,0,5.347-2.321,5.973-4.572v-11.937C236.111,273.463,234.052,271.486,230.986,271.486z" class="QARsFQna_14"></path>
		<path fill="#ED6B1A" stroke="#DB2018" stroke-miterlimit="10" d="M241.495,252.715v36.778c0,2.373,1.241,3.106,2.709,3.106h2.317
			v1.751h-7.908v-3.615c-2.146,2.767-4.349,4.008-8.587,4.008c-6.665,0-11.241-5.705-11.241-14.177
			c0-6.836,5.196-12.938,12.202-12.938c3.051,0,5.592,1.016,7.626,3.108v-12.372c0-1.414-0.452-1.583-4.349-1.583v-1.75
			C236.296,255.031,238.724,254.241,241.495,252.715 M230.76,292.77c4.124,0,7.117-3.109,7.853-6.216v-12.655
			c-0.623-1.412-3.504-4.293-7.627-4.293c-4.294,0-9.038,3.672-9.038,10.961C221.947,285.821,224.263,292.77,230.76,292.77
			 M245.253,246.355l-5.572,3.068c-2.774,1.529-4.478,1.85-5.417,1.85h-3.759v3.758v1.75v3.759h3.759c0.208,0,0.406,0,0.591,0.001
			v3.795c-1.217-0.312-2.508-0.469-3.866-0.469c-8.799,0-15.96,7.489-15.96,16.696c0,10.563,6.168,17.937,15,17.937
			c1.813,0,3.402-0.192,4.829-0.607v0.212h3.758h7.908h3.759v-3.759v-1.751v-3.759h-3.759h-1.269v-36.123L245.253,246.355
			L245.253,246.355z M230.76,289.011c-4.997,0-5.054-8.361-5.054-8.444c0-5.284,3.158-7.201,5.279-7.201
			c1.884,0,3.249,1.05,3.868,1.689v10.977C234.405,287.303,233.031,289.011,230.76,289.011L230.76,289.011z" class="QARsFQna_15"></path>
	</g>
	<g>
		<path fill="#FFF100" stroke="#DB2018" stroke-miterlimit="10" d="M288.203,296.623l-6.016-16.104l-4.728,15.711h-3.692
			l-9.621-24.318l-0.022-0.102c-0.344-0.097-1.168-0.097-1.734-0.097h-1.879v-5.51h13.475v5.51h-1.88c-0.362,0-0.765,0-1.124,0.008
			l4.567,11.842l3.528-11.85h-3.597v-5.51h13.475v5.51h-1.879c-0.406,0-0.863,0-1.25,0.012l4.434,12.028l4-12.039h-3.358v-5.51
			h13.363v5.51h-1.88c-0.932,0-2.086,0-2.417,0.14c0,0.018-0.026,0.084-0.057,0.2l-7.908,24.571h-3.801L288.203,296.623
			L288.203,296.623z" class="QARsFQna_16"></path>
		<path fill="#ED6B1A" stroke="#DB2018" stroke-miterlimit="10" d="M302.387,268.082v1.75c-2.599,0-3.842,0-4.293,1.751
			l-7.458,23.16h-1.131l-7.514-20.111l-5.931,19.716h-1.018l-9.094-22.993c-0.34-1.525-1.809-1.525-3.559-1.525v-1.75h9.716v1.75
			c-2.089,0-3.39,0-3.39,1.13c0,0.114,0.056,0.225,0.112,0.395l6.95,18.021l5.196-17.458v-0.112h0.056
			c0.057-0.34,0.114-0.623,0.114-0.848c0-0.847-0.623-1.13-1.525-1.13h-2.259v-1.75h9.717v1.75c-2.204,0-3.392,0-3.392,1.188
			c0,0.225,0.056,0.509,0.17,0.79l6.495,17.624l5.933-17.851c0.055-0.226,0.112-0.395,0.112-0.564c0-0.903-0.622-1.188-1.467-1.188
			h-2.148v-1.75h9.607 M306.147,264.323h-3.758h-9.604h-1.946h-3.758h-9.717h-1.495h-3.759h-9.716h-3.759v3.758v1.75v3.758h3.759
			c0.125,0,0.262,0,0.402,0.001l8.755,22.141l0.94,2.376h2.556h1.017h2.795l0.805-2.677l2.716-9.028l3.608,9.656l0.914,2.442h2.608
			h1.131h2.738l0.839-2.607l7.181-22.302c0.318-0.004,0.672-0.004,0.993-0.004h3.759v-3.758v-1.75v-3.757L306.147,264.323
			L306.147,264.323z M289.026,273.59h2.632l-1.486,4.477l-1.651-4.477H289.026L289.026,273.59z M273.72,273.59h2.838l-1.236,4.153
			L273.72,273.59L273.72,273.59z" class="QARsFQna_17"></path>
	</g>
	<g>
		<path fill="#FFF100" stroke="#DB2018" stroke-miterlimit="10" d="M318.259,297.302c-9.355,0-14.251-7.936-14.251-15.775
			c0-10.3,6.959-16.454,13.686-16.454c7.546,0,13.235,6.516,13.235,15.153v1.88H310.66c0.249,5.309,3.886,9.686,8.164,9.686
			c3.415,0,5.41-2.375,7.858-5.726l1.081-1.479l4.613,3.194l-1.225,1.569C326.849,294.848,323.966,297.302,318.259,297.302z
			 M324.008,276.596c-0.324-1.918-0.915-3.309-1.792-4.216c-1.146-1.236-2.577-1.799-4.523-1.799c-2.803,0-5.316,2.428-6.458,6.014
			L324.008,276.596L324.008,276.596z" class="QARsFQna_18"></path>
		<path fill="#ED6B1A" stroke="#DB2018" stroke-miterlimit="10" d="M317.693,266.951c6.215,0,11.356,5.309,11.356,13.274h-20.281
			v1.301c0,6.271,4.349,12.145,10.057,12.145c4.349,0,6.779-2.937,9.376-6.499l1.47,1.018c-4.464,5.705-6.836,7.23-11.412,7.23
			c-8.702,0-12.372-7.682-12.372-13.896C305.887,272.655,311.762,266.951,317.693,266.951 M308.881,278.475h17.23
			c-0.226-3.333-1.017-5.82-2.541-7.4c-1.469-1.582-3.391-2.373-5.875-2.373C313.401,268.703,309.728,272.712,308.881,278.475
			 M317.693,263.192c-7.649,0-15.564,6.859-15.564,18.334c0,8.773,5.541,17.656,16.131,17.656c6.451,0,9.774-2.796,14.371-8.674
			l2.454-3.139l-3.275-2.269l-1.47-1.019l-0.142-0.099h2.611v-3.758C332.808,270.515,326.309,263.192,317.693,263.192
			L317.693,263.192z M314.197,274.717c0.95-1.397,2.198-2.255,3.498-2.255c1.791,0,2.583,0.592,3.122,1.171l0.023,0.027l0.025,0.023
			c0.252,0.261,0.473,0.607,0.667,1.034H314.197L314.197,274.717z M312.826,283.984h13.05l-0.712,0.972
			c-2.551,3.495-3.994,4.957-6.341,4.957C316.106,289.913,313.656,287.339,312.826,283.984L312.826,283.984z" class="QARsFQna_19"></path>
	</g>
	<g>
		<path fill="#FFF100" stroke="#DB2018" stroke-miterlimit="10" d="M331.519,296.23v-5.511h5.213c0.2,0,0.33-0.018,0.41-0.033
			c0.026-0.175,0.026-0.463,0.026-0.572v-31.381c-0.462-0.038-1.212-0.071-2.414-0.071h-1.879v-5.508h1.879
			c1.678,0,3.84-0.718,6.253-2.075l2.8-1.575v40.609c0,0.302,0.021,0.493,0.042,0.604c0.016,0.001,5.665,0.001,5.665,0.001v5.509
			h-17.995V296.23z" class="QARsFQna_20"></path>
		<path fill="#ED6B1A" stroke="#DB2018" stroke-miterlimit="10" d="M341.926,252.715v37.399c0,1.299,0.283,2.485,1.978,2.485h3.729
			v1.751h-14.237v-1.751h3.334c2.26,0,2.315-1.47,2.315-2.485v-31.748c0-0.565-0.056-0.961-0.34-1.187
			c-0.282-0.283-1.638-0.397-3.954-0.397v-1.75C336.786,255.031,339.215,254.241,341.926,252.715 M345.685,246.29l-5.6,3.149
			c-2.101,1.182-3.996,1.833-5.333,1.833h-3.759v3.758v1.75v3.759h3.759c0.191,0,0.369,0,0.534,0.002v28.295h-1.891h-3.758v3.759
			v1.751v3.759h3.758h14.237h3.758v-3.759v-1.751v-3.759h-3.758h-1.947v-36.123V246.29L345.685,246.29z" class="QARsFQna_21"></path>
	</g>
	<g>
		<path fill="#FFF100" stroke="#DB2018" stroke-miterlimit="10" d="M364.408,297.358c-8.589,0-14.589-6.742-14.589-16.397
			c0-10.392,7.794-15.832,15.494-15.832c5.3,0,10.975,3.819,10.975,9.505c0,1.75-1.286,3.52-3.744,3.52
			c-2.101,0-3.688-1.538-3.688-3.576v-0.232l0.056-0.229c0.014-0.078,0.135-1.122,0.159-1.302c-0.122-0.537-1.215-2.176-3.758-2.176
			c-3.535,0-8.516,2.923-8.516,9.419c0,11.188,7.492,11.513,8.347,11.513c2.632,0,4.48-1.392,7.32-5.517l1.071-1.549l4.523,3.132
			l-1.005,1.534C373.287,294.91,369.506,297.358,364.408,297.358z" class="QARsFQna_22"></path>
		<path fill="#ED6B1A" stroke="#DB2018" stroke-miterlimit="10" d="M365.313,267.01c4.236,0,9.096,2.936,9.096,7.625
			c0,0.734-0.453,1.64-1.865,1.64c-0.847,0-1.808-0.509-1.808-1.696c0.056-0.226,0.169-1.413,0.227-1.695
			c0-1.413-1.865-4.123-5.651-4.123c-4.801,0-10.394,4.011-10.394,11.297c0,11.638,7.514,13.391,10.226,13.391
			c3.615,0,5.987-2.148,8.87-6.329l1.469,1.018c-3.334,5.083-6.496,7.343-11.073,7.343c-7.682,0-12.709-5.987-12.709-14.52
			C351.699,271.753,358.59,267.01,365.313,267.01 M365.313,263.25c-8.422,0-17.373,6.208-17.373,17.711
			c0,10.762,6.772,18.277,16.469,18.277c7.303,0,11.283-4.569,14.216-9.04l2.01-3.065l-3.015-2.086l-1.469-1.018l-3.097-2.144
			l-2.137,3.103c-2.724,3.953-4.131,4.702-5.774,4.702c-1.081,0-6.466-0.463-6.466-9.631c0-5.198,3.88-7.539,6.634-7.539
			c1.062,0,1.593,0.405,1.82,0.658c-0.002,0.022-0.004,0.042-0.008,0.062c-0.023,0.202-0.046,0.408-0.067,0.552l-0.08,0.322v0.464
			c0,3.059,2.445,5.455,5.565,5.455c3.206,0,5.621-2.321,5.621-5.4C378.168,267.604,371.494,263.25,365.313,263.25L365.313,263.25z" class="QARsFQna_23"></path>
	</g>
	<g>
		<path fill="#FFF100" stroke="#DB2018" stroke-miterlimit="10" d="M392.88,297.414c-10.102,0-14.702-8.266-14.702-15.946
			c0-12.154,8.794-16.566,14.702-16.566c6.918,0,14.365,5.183,14.365,16.566C407.243,289.396,402.309,297.414,392.88,297.414z
			 M392.88,270.469c-2.203,0-4.041,0.835-5.62,2.556c-1.426,1.604-2.161,4.453-2.161,8.444c0,2.436,0.561,10.38,7.78,10.38
			c7.029,0,7.385-8.646,7.385-10.38c0-4.01-0.707-6.891-2.106-8.568C396.756,271.271,395.024,270.469,392.88,270.469z" class="QARsFQna_24"></path>
		<path fill="#ED6B1A" stroke="#DB2018" stroke-miterlimit="10" d="M392.88,266.782c6.44,0,12.486,4.802,12.486,14.687
			c0,6.271-3.559,14.067-12.486,14.067c-9.434,0-12.821-8.021-12.821-14.067C380.057,270.622,387.795,266.782,392.88,266.782
			 M392.88,293.727c7.401,0,9.266-7.512,9.266-12.258c0-4.462-0.848-7.739-2.542-9.773c-1.75-2.035-4.009-3.108-6.72-3.108
			c-2.768,0-5.086,1.073-7.007,3.164c-1.808,2.034-2.655,5.312-2.655,9.716C383.22,285.592,384.745,293.727,392.88,293.727
			 M392.88,263.023c-8.038,0-16.581,6.465-16.581,18.448c0,8.587,5.19,17.825,16.581,17.825c10.665,0,16.244-8.966,16.244-17.825
			C409.124,268.795,400.702,263.023,392.88,263.023L392.88,263.023z M392.88,289.97c-5.326,0-5.9-5.945-5.9-8.5
			c0-4.381,0.925-6.343,1.705-7.22c1.196-1.3,2.503-1.902,4.195-1.902c1.587,0,2.818,0.574,3.875,1.801
			c1.039,1.247,1.633,3.864,1.633,7.321C398.385,283.462,397.987,289.97,392.88,289.97L392.88,289.97z" class="QARsFQna_25"></path>
	</g>
	<g>
		<path fill="#FFF100" stroke="#DB2018" stroke-miterlimit="10" d="M406.872,296.23v-5.511h3.575c0.443,0,0.711-0.093,0.773-0.138
			l-0.054-17.182c-0.618-0.104-1.785-0.104-2.472-0.104h-1.88v-5.51h1.88c1.755,0,3.91-0.622,6.401-1.842l2.708-1.326v2.638
			c1.318-0.91,2.964-1.502,5.296-1.502c2.912,0,5.237,1.051,6.91,3.125c1.589-1.548,4.106-3.125,7.777-3.125
			c5.213,0,8.715,3.889,8.715,9.673v15.026c0,0.131,0.015,0.214,0.024,0.263c0.005,0,0.108,0.004,0.187,0.004h3.855v5.511
			L406.872,296.23L406.872,296.23z M439.84,290.719c0.012-0.063,0.023-0.15,0.023-0.268v-15.026c0-1.251-0.275-4.164-2.81-4.164
			c-1.595,0-4.337,1.48-5.012,3.734v15.516c0,0.084,0.004,0.15,0.011,0.199c0.05,0.007,0.114,0.011,0.199,0.011h3.602
			L439.84,290.719L439.84,290.719z M425.416,290.719c-0.056,0-0.014-0.063-0.014-0.21v-14.801c0-4.448-2.286-4.448-3.037-4.448
			c-1.158,0-3.876,1.059-4.561,4.185v15.118c0,0.057,0.002,0.106,0.007,0.145l3.352,0.01L425.416,290.719L425.416,290.719z" class="QARsFQna_26"></path>
		<path fill="#ED6B1A" stroke="#DB2018" stroke-miterlimit="10" d="M437.787,267.628c3.897,0,6.838,2.712,6.838,7.796v15.026
			c0,1.356,0.732,2.147,2.089,2.147h1.979v1.751h-10.962v-1.751h2.203c1.131,0,1.809-0.791,1.809-2.147v-15.026
			c0-3.784-1.864-6.044-4.688-6.044c-2.431,0-6.101,2.089-6.892,5.367v15.762c0,1.412,0.736,2.089,2.089,2.089h1.923v1.751h-11.132
			v-1.751h2.375c0.903,0,1.864-0.791,1.864-2.089v-14.801c0-3.053-1.073-6.327-4.918-6.327c-2.146,0-5.647,1.751-6.441,5.874v15.31
			c0,1.356,0.735,2.035,1.866,2.035h2.146v1.751H408.75V292.6h1.694c0.96,0,2.598-0.283,2.598-2.035v-17.568
			c0-1.525-1.695-1.582-4.349-1.582v-1.752c2.033,0,4.464-0.677,7.228-2.034v4.238c2.034-2.54,3.448-4.238,7.177-4.238
			c2.373,0,4.182,0.791,5.536,2.543c0.395,0.566,0.735,1.299,1.017,2.204C430.727,270.453,433.267,267.628,437.787,267.628
			 M419.684,261.601l-5.413,2.651c-2.783,1.365-4.568,1.65-5.576,1.65h-3.758v3.758v1.752v3.759h3.758c0.161,0,0.368,0,0.591,0.001
			v13.664h-0.533h-3.758v3.759v1.751v3.759h3.758h11.185h3.759h10.479h3.759h10.76h3.759v-3.759v-1.751v-3.759h-3.759h-0.31v-13.415
			c0-6.803-4.358-11.554-10.595-11.554c-2.839,0-5.483,0.866-7.658,2.432c-1.876-1.616-4.232-2.432-7.028-2.432
			c-1.299,0-2.426,0.161-3.417,0.443L419.684,261.601L419.684,261.601z M433.919,275.314c0.536-1.257,2.321-2.175,3.134-2.175
			c0.86,0,0.93,1.748,0.93,2.285v13.415h-0.254h-3.757h-0.053V275.314L433.919,275.314z M419.684,275.668
			c0.55-2.078,2.334-2.528,2.68-2.528c0.376,0,1.158,0,1.158,2.568v13.131h-0.48h-3.358L419.684,275.668L419.684,275.668z" class="QARsFQna_27"></path>
	</g>
	<g>
		<path fill="#FFF100" stroke="#DB2018" stroke-miterlimit="10" d="M464.334,297.302c-9.355,0-14.251-7.936-14.251-15.775
			c0-10.3,6.96-16.454,13.688-16.454c7.545,0,13.233,6.516,13.233,15.153v1.88H456.74c0.247,5.309,3.886,9.686,8.162,9.686
			c3.418,0,5.412-2.375,7.858-5.726l1.082-1.479l4.615,3.194l-1.228,1.569C472.926,294.848,470.043,297.302,464.334,297.302z
			 M470.078,276.596c-0.326-1.909-0.924-3.322-1.786-4.216c-1.149-1.236-2.578-1.799-4.521-1.799c-2.804,0-5.317,2.428-6.459,6.014
			L470.078,276.596L470.078,276.596z" class="QARsFQna_28"></path>
		<path fill="#ED6B1A" stroke="#DB2018" stroke-miterlimit="10" d="M463.771,266.951c6.213,0,11.354,5.309,11.354,13.274h-20.28
			v1.301c0,6.271,4.349,12.145,10.055,12.145c4.35,0,6.777-2.937,9.378-6.499l1.469,1.018c-4.465,5.705-6.838,7.23-11.412,7.23
			c-8.7,0-12.372-7.682-12.372-13.896C451.963,272.655,457.839,266.951,463.771,266.951 M454.958,278.475h17.23
			c-0.227-3.333-1.02-5.82-2.544-7.4c-1.467-1.582-3.388-2.373-5.873-2.373C459.474,268.703,455.805,272.712,454.958,278.475
			 M463.771,263.192c-7.65,0-15.567,6.859-15.567,18.334c0,8.773,5.543,17.656,16.131,17.656c6.453,0,9.776-2.796,14.375-8.674
			l2.457-3.14l-3.279-2.267l-1.469-1.019l-0.145-0.099h2.61v-3.758C478.882,270.515,472.387,263.192,463.771,263.192
			L463.771,263.192z M460.245,274.717c0.945-1.406,2.194-2.255,3.525-2.255c1.791,0,2.581,0.592,3.118,1.171l0.025,0.027
			l0.025,0.024c0.25,0.261,0.473,0.605,0.667,1.032L460.245,274.717L460.245,274.717z M458.902,283.984h13.05l-0.71,0.972
			c-2.552,3.495-3.995,4.957-6.343,4.957C462.181,289.913,459.733,287.339,458.902,283.984L458.902,283.984z" class="QARsFQna_29"></path>
	</g>
	<g>
		<path fill="#FFF100" stroke="#DB2018" stroke-miterlimit="10" d="M503.481,296.623c-2.229,0-7.414-0.897-7.414-9.221v-15.578
			h-5.142v-5.509h1.88c3.098,0,4.559-0.996,4.559-10.098v-1.88h5.34v11.979h7.854v5.509h-7.854v15.578
			c0,3.712,0.43,3.712,1.566,3.712c0.241,0,1.579-0.152,4.245-3.155l1.293-1.455l4.002,3.821l-1.278,1.358
			C509.647,294.747,507.664,296.623,503.481,296.623z" class="QARsFQna_30"></path>
		<path fill="#ED6B1A" stroke="#DB2018" stroke-miterlimit="10" d="M500.827,256.217v11.977h7.854v1.751h-7.854v17.457
			c0,3.389,0.282,5.592,3.443,5.592c1.472,0,3.392-1.243,5.65-3.787l1.242,1.188c-2.769,2.938-4.292,4.349-7.683,4.349
			c-4.574,0-5.535-3.896-5.535-7.342v-17.457h-5.141v-1.75c5.25,0,6.438-3.503,6.438-11.978H500.827 M504.584,252.459h-3.758h-1.584
			h-3.758v3.758c0,1.425,0,5.754-0.862,7.505c-0.197,0.398-0.351,0.713-1.817,0.713h-3.761v3.758v1.751v3.759h3.761h1.381v13.699
			c0,10.301,7.116,11.102,9.295,11.102c5.207,0,7.741-2.687,10.419-5.529l2.561-2.721l-2.701-2.578l-1.244-1.185l-2.817-2.691
			l-2.586,2.913c-1.178,1.324-2.001,1.966-2.482,2.272c-0.026-0.372-0.044-0.882-0.044-1.583v-13.699h4.096h3.759v-3.759v-1.751
			v-3.758h-3.759h-4.096v-8.219L504.584,252.459L504.584,252.459L504.584,252.459z" class="QARsFQna_31"></path>
	</g>
	<g>
		<path fill="#FFF100" stroke="#DB2018" stroke-miterlimit="10" d="M527.263,297.414c-10.104,0-14.703-8.266-14.703-15.946
			c0-12.154,8.794-16.566,14.703-16.566c6.917,0,14.362,5.183,14.362,16.566C541.625,289.396,536.692,297.414,527.263,297.414z
			 M527.263,270.469c-2.203,0-4.043,0.835-5.622,2.556c-1.426,1.604-2.157,4.455-2.157,8.444c0,2.436,0.56,10.38,7.78,10.38
			c7.027,0,7.384-8.646,7.384-10.38c0-4.012-0.707-6.895-2.104-8.568C531.138,271.271,529.406,270.469,527.263,270.469z" class="QARsFQna_32"></path>
		<path fill="#ED6B1A" stroke="#DB2018" stroke-miterlimit="10" d="M527.263,266.782c6.439,0,12.483,4.802,12.483,14.687
			c0,6.271-3.559,14.067-12.483,14.067c-9.436,0-12.825-8.021-12.825-14.067C514.437,270.622,522.177,266.782,527.263,266.782
			 M527.263,293.727c7.398,0,9.264-7.512,9.264-12.258c0-4.462-0.847-7.739-2.541-9.773c-1.751-2.035-4.012-3.108-6.722-3.108
			c-2.769,0-5.086,1.073-7.006,3.164c-1.807,2.034-2.654,5.312-2.654,9.716C517.602,285.592,519.127,293.727,527.263,293.727
			 M527.263,263.023c-8.039,0-16.583,6.465-16.583,18.448c0,8.587,5.19,17.825,16.583,17.825c10.663,0,16.242-8.966,16.242-17.825
			C543.506,268.795,535.085,263.023,527.263,263.023L527.263,263.023z M523.048,274.269c1.229-1.33,2.529-1.923,4.215-1.923
			c1.584,0,2.815,0.574,3.873,1.802c1.039,1.245,1.631,3.86,1.631,7.319c0,1.994-0.394,8.5-5.504,8.5
			c-5.327,0-5.901-5.945-5.901-8.5C521.362,277.123,522.273,275.156,523.048,274.269L523.048,274.269z" class="QARsFQna_33"></path>
	</g>
	<g>
		<path fill="#FFF100" stroke="#DB2018" stroke-miterlimit="10" d="M555.431,296.23v-5.511h3.577c0.442,0,0.712-0.093,0.773-0.139
			l-0.054-17.18c-0.616-0.104-1.786-0.104-2.473-0.104h-1.877v-5.51h1.877c1.756,0,3.91-0.622,6.404-1.842l2.707-1.326v2.636
			c1.315-0.909,2.962-1.501,5.293-1.501c2.912,0,5.237,1.05,6.91,3.126c1.587-1.549,4.105-3.126,7.778-3.126
			c5.21,0,8.714,3.889,8.714,9.673v15.026c0,0.131,0.013,0.214,0.024,0.263c0.005-0.001,0.109,0.004,0.188,0.004h3.855v5.51
			L555.431,296.23L555.431,296.23z M588.404,290.719c0.011-0.063,0.021-0.15,0.021-0.268v-15.026c0-1.251-0.274-4.164-2.807-4.164
			c-1.595,0-4.34,1.48-5.014,3.733v15.517c0,0.083,0.005,0.15,0.012,0.199c0.048,0.007,0.116,0.011,0.201,0.011h3.6L588.404,290.719
			L588.404,290.719z M573.977,290.719c-0.057,0-0.016-0.063-0.016-0.21v-14.801c0-4.448-2.283-4.448-3.035-4.448
			c-1.159,0-3.875,1.059-4.559,4.185v15.118c0,0.057,0.002,0.106,0.005,0.145l3.353,0.01L573.977,290.719L573.977,290.719z" class="QARsFQna_34"></path>
		<path fill="#ED6B1A" stroke="#DB2018" stroke-miterlimit="10" d="M586.349,267.628c3.896,0,6.834,2.712,6.834,7.796v15.026
			c0,1.356,0.736,2.147,2.093,2.147h1.975v1.751h-10.958v-1.751h2.203c1.129,0,1.807-0.791,1.807-2.147v-15.026
			c0-3.784-1.863-6.044-4.687-6.044c-2.43,0-6.103,2.089-6.896,5.367v15.762c0,1.412,0.737,2.089,2.094,2.089h1.918v1.751h-11.128
			v-1.751h2.374c0.903,0,1.862-0.791,1.862-2.089v-14.801c0-3.053-1.071-6.327-4.913-6.327c-2.148,0-5.65,1.751-6.441,5.874v15.31
			c0,1.356,0.735,2.035,1.863,2.035h2.148v1.751h-11.188V292.6h1.697c0.959,0,2.598-0.283,2.598-2.035v-17.568
			c0-1.525-1.695-1.582-4.35-1.582v-1.752c2.033,0,4.462-0.677,7.229-2.034v4.238c2.033-2.54,3.445-4.238,7.175-4.238
			c2.374,0,4.18,0.791,5.536,2.543c0.394,0.566,0.732,1.299,1.018,2.204C579.287,270.453,581.83,267.628,586.349,267.628
			 M568.246,261.603l-5.412,2.65c-2.783,1.366-4.57,1.651-5.576,1.651h-3.761v3.758v1.752v3.759h3.761c0.16,0,0.365,0,0.591,0.001
			v13.664h-0.536h-3.76v3.759v1.751v3.759h3.76h11.188h3.759h10.475h3.759h10.761h3.761v-3.759v-1.751v-3.759h-3.761h-0.309v-13.415
			c0-6.803-4.357-11.554-10.595-11.554c-2.839,0-5.483,0.866-7.657,2.432c-1.877-1.616-4.231-2.432-7.029-2.432
			c-1.298,0-2.424,0.162-3.415,0.443L568.246,261.603L568.246,261.603z M582.482,275.312c0.534-1.255,2.32-2.173,3.135-2.173
			c0.859,0,0.929,1.748,0.929,2.285v13.415h-0.253h-3.758h-0.054L582.482,275.312L582.482,275.312z M568.246,275.667
			c0.546-2.078,2.334-2.527,2.682-2.527c0.375,0,1.154,0,1.154,2.568v13.131h-0.478h-3.358V275.667L568.246,275.667z" class="QARsFQna_35"></path>
	</g>
	<g>
		<path fill="#FFF100" stroke="#DB2018" stroke-miterlimit="10" d="M606.232,302.331c-2.928,0-5.891-1.615-5.891-4.705
			c0-2.456,1.827-3.742,3.631-3.742c1.003,0,2.096,0.389,3.16,1.126c0.444,0.295,0.62,0.342,0.64,0.348
			c0.688-0.007,1.675-0.23,2.541-1.962l0.398-0.858l-9.069-19.715c-0.527-1.168-0.527-1.168-2.699-1.168h-1.878v-5.509h14.378v5.509
			h-3.082l5.982,13.194l6.235-13.194h-3.628v-5.509h14.773v5.509h-3.969c-0.981,0-1.593,0.285-1.812,0.846l-10.27,22.076
			C612.588,301.321,608.435,302.331,606.232,302.331z" class="QARsFQna_36"></path>
		<path fill="#ED6B1A" stroke="#DB2018" stroke-miterlimit="10" d="M629.844,268.026v1.751h-2.089c-0.85,0-2.825,0.168-3.56,2.033
			l-10.225,21.974c-2.148,4.69-5.028,6.667-7.739,6.667c-1.809,0-4.011-0.849-4.011-2.825c0-1.694,1.413-1.864,1.751-1.864
			c0.62,0,1.354,0.284,2.09,0.792c0.677,0.449,1.185,0.676,1.639,0.676c1.807,0,3.275-0.96,4.295-2.993l0.789-1.696l-9.434-20.505
			c-1.017-2.26-1.864-2.26-4.405-2.26v-1.751h10.618v1.751h-2.484c-0.733,0-1.072,0.284-1.072,0.79c0,0.34,0.114,0.734,0.341,1.184
			l7.964,17.571l8.248-17.456c0.169-0.396,0.284-0.79,0.284-1.073c0-0.679-0.508-1.018-1.471-1.018h-2.54v-1.751h11.013
			 M633.605,264.266h-3.761h-11.015h-3.759v3.76v1.751v3.758h2.539l-3.229,6.838l-3.103-6.838h2.044v-3.758v-1.751v-3.76h-3.759
			h-10.618h-3.76v3.76v1.751v3.758h3.76c0.313,0,0.669,0,0.961,0.006c0.004,0.014,0.01,0.026,0.017,0.037l8.721,18.954l-0.028,0.064
			c-0.225,0.438-0.409,0.656-0.562,0.765c-1.334-0.888-2.741-1.358-4.08-1.358c-2.67,0-5.51,1.971-5.51,5.622
			c0,3.753,3.34,6.583,7.771,6.583c2.651,0,7.627-1.152,11.154-8.863l10.145-21.801c0.062-0.006,0.135-0.011,0.223-0.011h2.088
			h3.761v-3.758v-1.751V264.266L633.605,264.266z" class="QARsFQna_37"></path>
	</g>
	<g>
		<path fill="#FFF100" stroke="#DB2018" stroke-miterlimit="10" d="M671.472,296.623l-6.021-16.104l-4.725,15.711h-3.689
			l-9.622-24.318l-0.022-0.102c-0.346-0.097-1.172-0.097-1.734-0.097h-1.879v-5.51h13.475v5.51h-1.879c-0.363,0-0.767,0-1.124,0.008
			l4.568,11.842l3.525-11.85h-3.596v-5.51h13.477v5.51h-1.879c-0.406,0-0.863,0-1.25,0.012l4.434,12.028l4.001-12.039h-3.358v-5.51
			h13.36v5.51h-1.878c-0.935,0-2.089,0-2.417,0.14c0,0.018-0.026,0.084-0.06,0.201l-7.907,24.57h-3.802v-0.004H671.472z" class="QARsFQna_38"></path>
		<path fill="#ED6B1A" stroke="#DB2018" stroke-miterlimit="10" d="M685.656,268.082v1.75c-2.601,0-3.842,0-4.293,1.751
			l-7.459,23.16h-1.128l-7.516-20.111l-5.929,19.716h-1.018l-9.095-22.993c-0.342-1.525-1.81-1.525-3.561-1.525v-1.75h9.717v1.75
			c-2.09,0-3.389,0-3.389,1.13c0,0.114,0.057,0.225,0.113,0.395l6.948,18.021l5.196-17.458v-0.112h0.057
			c0.058-0.34,0.114-0.623,0.114-0.848c0-0.847-0.623-1.13-1.525-1.13h-2.26v-1.75h9.717v1.75c-2.205,0-3.39,0-3.39,1.188
			c0,0.225,0.058,0.509,0.168,0.79l6.497,17.624l5.933-17.851c0.056-0.226,0.113-0.395,0.113-0.564c0-0.903-0.623-1.188-1.469-1.188
			h-2.146v-1.75h9.603 M689.413,264.323h-3.759h-9.603h-1.947h-3.76h-9.719h-1.494h-3.759h-9.718h-3.759v3.758v1.75v3.758h3.759
			c0.125,0,0.263,0,0.4,0.001l8.757,22.141l0.941,2.376h2.557h1.018h2.793l0.807-2.677l2.716-9.028l3.608,9.657l0.913,2.443h2.607
			h1.129h2.739l0.84-2.608l7.18-22.302c0.318-0.004,0.674-0.004,0.994-0.004h3.759v-3.758v-1.75V264.323L689.413,264.323z
			 M672.293,273.59h2.634l-1.488,4.477l-1.651-4.477H672.293L672.293,273.59z M656.989,273.59h2.837l-1.235,4.153L656.989,273.59
			L656.989,273.59z" class="QARsFQna_39"></path>
	</g>
	<g>
		<path fill="#FFF100" stroke="#DB2018" stroke-miterlimit="10" d="M701.527,297.302c-9.355,0-14.251-7.936-14.251-15.775
			c0-10.3,6.956-16.454,13.687-16.454c7.545,0,13.235,6.516,13.235,15.153v1.88h-20.27c0.248,5.309,3.887,9.686,8.164,9.686
			c3.415,0,5.41-2.375,7.857-5.726l1.082-1.479l4.61,3.195l-1.226,1.569C710.115,294.848,707.234,297.302,701.527,297.302z
			 M707.272,276.596c-0.326-1.909-0.927-3.322-1.787-4.216c-1.148-1.236-2.578-1.799-4.522-1.799c-2.803,0-5.316,2.428-6.459,6.014
			L707.272,276.596L707.272,276.596z" class="QARsFQna_40"></path>
		<path fill="#ED6B1A" stroke="#DB2018" stroke-miterlimit="10" d="M700.959,266.951c6.214,0,11.356,5.309,11.356,13.274h-20.281
			v1.301c0,6.271,4.35,12.145,10.056,12.145c4.348,0,6.776-2.937,9.377-6.499l1.465,1.018c-4.459,5.705-6.834,7.23-11.409,7.23
			c-8.699,0-12.372-7.682-12.372-13.896C689.154,272.655,695.03,266.951,700.959,266.951 M692.146,278.475h17.23
			c-0.225-3.333-1.016-5.82-2.542-7.4c-1.468-1.582-3.388-2.373-5.874-2.373C696.668,268.703,692.996,272.712,692.146,278.475
			 M700.959,263.192c-7.651,0-15.565,6.859-15.565,18.334c0,8.773,5.542,17.656,16.13,17.656c6.453,0,9.776-2.796,14.372-8.676
			l2.451-3.135l-3.27-2.268l-1.468-1.018l-0.146-0.102h2.609v-3.758C716.074,270.515,709.576,263.192,700.959,263.192
			L700.959,263.192z M697.461,274.717c0.952-1.397,2.2-2.255,3.498-2.255c1.791,0,2.582,0.592,3.119,1.171l0.024,0.027l0.026,0.024
			c0.251,0.261,0.474,0.605,0.665,1.032L697.461,274.717L697.461,274.717z M696.095,283.984h13.049l-0.71,0.972
			c-2.552,3.495-3.995,4.957-6.343,4.957C699.372,289.913,696.925,287.339,696.095,283.984L696.095,283.984z" class="QARsFQna_41"></path>
	</g>
	<g>
		<path fill="#FFF100" stroke="#DB2018" stroke-miterlimit="10" d="M729.26,296.623c-2.649,0-4.873-0.716-7.073-2.337l-0.705,1.943
			h-4.608v-37.713c-0.69-0.079-1.893-0.079-2.416-0.079h-1.879v-5.509h1.879c1.766,0,3.947-0.648,6.308-1.877l2.746-1.429v17.932
			c2.05-1.221,4.355-1.802,7.045-1.802c5.938,0,12.331,4.565,12.331,14.59C742.889,288.182,738.626,296.623,729.26,296.623z
			 M723.513,287.857c0.833,1.431,3.16,3.258,5.748,3.258c1.977,0,3.473-0.698,4.704-2.196c1.559-1.848,2.341-4.727,2.341-8.578
			c0-3.256-0.684-5.636-2.034-7.077c-1.298-1.341-2.833-2.002-4.671-2.002c-2.886,0-5.316,2.401-6.086,3.665L723.513,287.857
			L723.513,287.857z" class="QARsFQna_42"></path>
		<path fill="#ED6B1A" stroke="#DB2018" stroke-miterlimit="10" d="M721.635,252.715v18.814c2.428-2.657,5.14-3.899,8.924-3.899
			c4.858,0,10.452,3.787,10.452,12.711c0,7.118-3.729,14.403-11.75,14.403c-3.222,0-5.479-1.242-7.909-3.671l-1.185,3.276h-1.413
			v-36.21c0-1.412-0.848-1.583-4.293-1.583v-1.75C716.494,254.805,718.921,254.128,721.635,252.715 M729.26,292.994
			c2.541,0,4.575-0.962,6.156-2.882c1.81-2.146,2.769-5.366,2.769-9.772c0-3.787-0.848-6.553-2.541-8.362
			c-1.64-1.694-3.673-2.598-6.043-2.598c-4.012,0-7.23,3.446-7.965,5.084v13.841C722.537,290.34,725.648,292.994,729.26,292.994
			 M725.393,246.522l-5.494,2.861c-2.644,1.377-4.416,1.664-5.44,1.664h-3.76v3.759v1.75v3.759h3.76c0.188,0,0.368,0,0.536,0.001
			v34.033v3.758h3.758h1.412h2.637l0.366-1.013c1.666,0.837,3.665,1.409,6.092,1.409c10.654,0,15.508-9.416,15.508-18.164
			c0-10.813-7.148-16.468-14.21-16.468c-1.875,0-3.586,0.249-5.165,0.763v-11.919L725.393,246.522L725.393,246.522z
			 M725.393,275.517c0.727-0.903,2.405-2.376,4.206-2.376c1.321,0,2.383,0.462,3.344,1.453c1.22,1.303,1.484,3.849,1.484,5.75
			c0,3.394-0.634,5.867-1.883,7.349c-0.901,1.092-1.874,1.545-3.283,1.545c-1.67,0-3.188-1.147-3.867-1.966L725.393,275.517
			L725.393,275.517z" class="QARsFQna_43"></path>
	</g>
	<g>
		<path fill="#FFF100" stroke="#DB2018" stroke-miterlimit="10" d="M757.336,297.245c-2.152,0-4.404-0.627-6.709-1.867l-0.946,1.019
			h-3.124l-3.312-11.116l4.252-1.251l0.714,1.371c1.268,2.431,2.617,4.001,4.129,4.799l0.109,0.064
			c1.558,0.963,3.249,1.472,4.888,1.472c2.097,0,4.222-1.14,4.222-3.32c0-2.134-0.793-3.437-5.118-4.626
			c-5.189-1.247-8.038-2.514-9.471-4.217c-1.33-1.396-2.078-3.409-2.078-5.729c0-3.605,3.481-8.602,10.014-8.602
			c1.954,0,3.838,0.4,5.621,1.195l0.779-0.854h2.685l4.333,11.216h-4.858l-0.55-0.886c-1.929-3.099-4.029-5.16-8.011-5.16
			c-2.697,0-3.656,1.666-3.656,3.092c0,1.127,0,2.099,6.088,3.419c5.611,1.473,10.576,3.383,10.576,10.705
			C767.914,292.466,764.208,297.245,757.336,297.245z" class="QARsFQna_44"></path>
		<path fill="#ED6B1A" stroke="#DB2018" stroke-miterlimit="10" d="M754.905,267.12c2.146,0,4.181,0.565,6.046,1.64l1.184-1.299
			h0.566l2.881,7.457h-1.073c-2.147-3.446-4.743-6.045-9.604-6.045c-3.615,0-5.535,2.373-5.535,4.971
			c0,2.939,2.09,4.068,7.568,5.255c5.367,1.41,9.098,2.936,9.098,8.868c0,3.502-2.995,7.398-8.699,7.398
			c-2.204,0-4.578-0.791-7.063-2.373l-1.412,1.525h-0.903l-2.375-7.965l0.961-0.284c1.413,2.711,2.995,4.577,4.915,5.593
			c1.92,1.188,3.955,1.752,5.877,1.752c3.162,0,6.101-1.92,6.101-5.199c0-3.896-2.6-5.367-6.499-6.439
			c-4.462-1.073-7.343-2.203-8.531-3.614c-1.072-1.131-1.636-2.711-1.636-4.52C746.772,271.019,749.652,267.12,754.905,267.12
			 M754.905,263.362c-7.113,0-11.891,5.42-11.891,10.48c0,2.73,0.917,5.22,2.593,7.027c0.411,0.474,0.895,0.912,1.467,1.326
			l-1.591,0.469l-0.963,0.283l-3.617,1.066l1.077,3.614l2.374,7.968l0.802,2.685h2.801h0.903h1.643l0.549-0.593
			c2.131,0.956,4.234,1.438,6.283,1.438c7.797,0,12.457-5.673,12.457-11.156c0-4.657-1.838-7.483-4.23-9.292h0.02h5.481
			l-1.976-5.113l-2.88-7.457l-0.929-2.404h-2.578h-0.566h-1.66l-0.465,0.512C758.369,263.647,756.662,263.362,754.905,263.362
			L754.905,263.362z M753.132,273.97c-0.002-0.034-0.004-0.076-0.004-0.129c0-0.806,0.598-1.214,1.776-1.214
			c2.639,0,4.228,0.954,6.063,3.725c-1.091-0.371-2.147-0.648-3.071-0.892l-0.079-0.022l-0.08-0.02
			C754.471,274.718,753.452,274.211,753.132,273.97L753.132,273.97z M757.336,289.857c-1.291,0-2.639-0.413-3.901-1.191
			l-0.106-0.068l-0.112-0.058c-1.163-0.614-2.254-1.925-3.34-4.006l-0.548-1.055c1.682,0.769,3.85,1.456,6.669,2.139
			c3.679,1.018,3.679,1.765,3.679,2.796C759.678,289.599,757.986,289.857,757.336,289.857L757.336,289.857z" class="QARsFQna_45"></path>
	</g>
	<g>
		<path fill="#FFF100" stroke="#DB2018" stroke-miterlimit="10" d="M768.672,296.23v-5.511h5.269c0.401,0,0.605-0.104,0.638-0.131
			l-0.028-17.04c-0.262-0.051-0.72-0.103-1.5-0.103c-0.31,0-0.619,0.008-0.919,0.016l-1.931,0.055v-5.564h1.879
			c1.749,0,3.859-0.664,6.28-1.977l2.774-1.501v26.091c0,0.091,0.012,0.13,0.012,0.13c-0.002-0.011,0.009-0.014,0.023-0.014
			c0.063,0,0.229,0.039,0.458,0.039h5.27v5.511h-18.224L768.672,296.23L768.672,296.23z M777.897,259.624
			c-2.456,0-4.309-1.927-4.309-4.479c0-2.57,1.771-4.366,4.309-4.366c2.543,0,4.535,1.917,4.535,4.366
			C782.432,257.571,780.355,259.624,777.897,259.624z" class="QARsFQna_46"></path>
		<path fill="#ED6B1A" stroke="#DB2018" stroke-miterlimit="10" d="M777.897,252.659c1.469,0,2.655,1.018,2.655,2.486
			s-1.302,2.599-2.655,2.599c-1.641,0-2.429-1.299-2.429-2.599C775.467,253.675,776.371,252.659,777.897,252.659 M779.251,267.628
			v22.935c0,1.582,1.303,2.034,2.375,2.034h3.39v1.751h-14.462v-1.751h3.39c1.243,0,2.485-0.566,2.485-2.034v-17.511
			c0-1.282-1.673-1.487-3.379-1.487c-0.325,0-0.653,0.01-0.971,0.017v-1.751C774.166,269.831,776.542,269.098,779.251,267.628
			 M777.897,248.901c-3.585,0-6.188,2.627-6.188,6.245c0,3.624,2.659,6.357,6.188,6.357c3.476,0,6.414-2.913,6.414-6.357
			C784.311,251.643,781.493,248.901,777.897,248.901L777.897,248.901z M783.012,261.317l-5.551,3.007
			c-2.143,1.159-3.951,1.747-5.383,1.747h-3.759v3.759v1.751v3.865l3.863-0.107c0.16-0.004,0.321-0.01,0.487-0.013v13.511h-2.117
			h-3.759v3.759v1.751v3.759h3.759h14.461h3.76v-3.759v-1.751v-3.759h-3.76h-2.004v-21.21L783.012,261.317L783.012,261.317z" class="QARsFQna_47"></path>
	</g>
	<g>
		<path fill="#FFF100" stroke="#DB2018" stroke-miterlimit="10" d="M798.514,296.623c-2.229,0-7.412-0.897-7.412-9.221v-15.578
			h-5.143v-5.509h1.879c3.101,0,4.561-0.996,4.561-10.098v-1.88h5.341v11.979h7.853v5.509h-7.853v15.578
			c0,3.712,0.427,3.712,1.566,3.712c0.241,0,1.577-0.152,4.245-3.155l1.292-1.455l4.002,3.821l-1.28,1.358
			C804.681,294.747,802.699,296.623,798.514,296.623z" class="QARsFQna_48"></path>
		<path fill="#ED6B1A" stroke="#DB2018" stroke-miterlimit="10" d="M795.861,256.217v11.977h7.853v1.751h-7.853v17.457
			c0,3.389,0.282,5.592,3.445,5.592c1.468,0,3.39-1.243,5.648-3.787l1.244,1.188c-2.768,2.938-4.294,4.349-7.686,4.349
			c-4.575,0-5.533-3.896-5.533-7.342v-17.457h-5.144v-1.75c5.254,0,6.442-3.503,6.442-11.978H795.861 M799.619,252.459h-3.759
			h-1.582h-3.76v3.758c0,1.425,0,5.754-0.862,7.505c-0.197,0.398-0.351,0.713-1.818,0.713h-3.76v3.758v1.751v3.759h3.76h1.383
			v13.699c0,10.301,7.113,11.102,9.293,11.102c5.209,0,7.741-2.687,10.419-5.529l2.561-2.721l-2.7-2.578l-1.242-1.185l-2.818-2.691
			l-2.588,2.913c-1.174,1.322-1.999,1.965-2.481,2.272c-0.026-0.372-0.042-0.882-0.042-1.582v-13.699h4.093h3.76v-3.759v-1.751
			v-3.758h-3.76h-4.093v-8.218v-3.758L799.619,252.459L799.619,252.459z" class="QARsFQna_49"></path>
	</g>
	<g>
		<path fill="#FFF100" stroke="#DB2018" stroke-miterlimit="10" d="M821.845,297.302c-9.358,0-14.252-7.936-14.252-15.775
			c0-10.3,6.96-16.454,13.688-16.454c7.545,0,13.233,6.516,13.233,15.153v1.88h-20.269c0.247,5.309,3.886,9.686,8.163,9.686
			c3.416,0,5.412-2.375,7.862-5.726l1.08-1.479l4.612,3.194l-1.224,1.569C830.434,294.848,827.551,297.302,821.845,297.302z
			 M827.588,276.596c-0.328-1.909-0.926-3.322-1.789-4.216c-1.147-1.235-2.575-1.797-4.52-1.797c-2.801,0-5.316,2.428-6.459,6.014
			H827.588z" class="QARsFQna_50"></path>
		<path fill="#ED6B1A" stroke="#DB2018" stroke-miterlimit="10" d="M821.28,266.951c6.213,0,11.354,5.309,11.354,13.274h-20.281
			v1.301c0,6.271,4.351,12.145,10.056,12.145c4.35,0,6.778-2.937,9.379-6.499l1.468,1.018c-4.463,5.705-6.837,7.23-11.41,7.23
			c-8.701,0-12.373-7.682-12.373-13.896C809.472,272.655,815.345,266.951,821.28,266.951 M812.468,278.475h17.229
			c-0.226-3.333-1.019-5.82-2.542-7.4c-1.469-1.582-3.39-2.373-5.874-2.373C816.985,268.703,813.314,272.712,812.468,278.475
			 M821.28,263.192c-7.651,0-15.567,6.859-15.567,18.334c0,8.773,5.541,17.656,16.133,17.656c6.449,0,9.773-2.796,14.372-8.674
			l2.455-3.139l-3.275-2.269l-1.468-1.019l-0.145-0.099h2.608v-3.758C836.391,270.515,829.895,263.192,821.28,263.192
			L821.28,263.192z M817.754,274.717c0.946-1.406,2.196-2.255,3.525-2.255c1.79,0,2.582,0.593,3.12,1.171l0.023,0.027l0.023,0.023
			c0.252,0.261,0.478,0.607,0.667,1.034H817.754L817.754,274.717z M816.41,283.984h13.053l-0.713,0.972
			c-2.553,3.495-3.997,4.957-6.344,4.957C819.689,289.913,817.24,287.339,816.41,283.984L816.41,283.984z" class="QARsFQna_51"></path>
	</g>
</g>
<style data-made-with="vivus-instant">.QARsFQna_0{stroke-dasharray:322 324;stroke-dashoffset:323;animation:QARsFQna_draw_0 7200ms linear 0ms infinite,QARsFQna_fade 7200ms linear 0ms infinite;}.QARsFQna_1{stroke-dasharray:639 641;stroke-dashoffset:640;animation:QARsFQna_draw_1 7200ms linear 0ms infinite,QARsFQna_fade 7200ms linear 0ms infinite;}.QARsFQna_2{stroke-dasharray:174 176;stroke-dashoffset:175;animation:QARsFQna_draw_2 7200ms linear 0ms infinite,QARsFQna_fade 7200ms linear 0ms infinite;}.QARsFQna_3{stroke-dasharray:335 337;stroke-dashoffset:336;animation:QARsFQna_draw_3 7200ms linear 0ms infinite,QARsFQna_fade 7200ms linear 0ms infinite;}.QARsFQna_4{stroke-dasharray:136 138;stroke-dashoffset:137;animation:QARsFQna_draw_4 7200ms linear 0ms infinite,QARsFQna_fade 7200ms linear 0ms infinite;}.QARsFQna_5{stroke-dasharray:269 271;stroke-dashoffset:270;animation:QARsFQna_draw_5 7200ms linear 0ms infinite,QARsFQna_fade 7200ms linear 0ms infinite;}.QARsFQna_6{stroke-dasharray:136 138;stroke-dashoffset:137;animation:QARsFQna_draw_6 7200ms linear 0ms infinite,QARsFQna_fade 7200ms linear 0ms infinite;}.QARsFQna_7{stroke-dasharray:269 271;stroke-dashoffset:270;animation:QARsFQna_draw_7 7200ms linear 0ms infinite,QARsFQna_fade 7200ms linear 0ms infinite;}.QARsFQna_8{stroke-dasharray:157 159;stroke-dashoffset:158;animation:QARsFQna_draw_8 7200ms linear 0ms infinite,QARsFQna_fade 7200ms linear 0ms infinite;}.QARsFQna_9{stroke-dasharray:314 316;stroke-dashoffset:315;animation:QARsFQna_draw_9 7200ms linear 0ms infinite,QARsFQna_fade 7200ms linear 0ms infinite;}.QARsFQna_10{stroke-dasharray:174 176;stroke-dashoffset:175;animation:QARsFQna_draw_10 7200ms linear 0ms infinite,QARsFQna_fade 7200ms linear 0ms infinite;}.QARsFQna_11{stroke-dasharray:340 342;stroke-dashoffset:341;animation:QARsFQna_draw_11 7200ms linear 0ms infinite,QARsFQna_fade 7200ms linear 0ms infinite;}.QARsFQna_12{stroke-dasharray:195 197;stroke-dashoffset:196;animation:QARsFQna_draw_12 7200ms linear 0ms infinite,QARsFQna_fade 7200ms linear 0ms infinite;}.QARsFQna_13{stroke-dasharray:367 369;stroke-dashoffset:368;animation:QARsFQna_draw_13 7200ms linear 0ms infinite,QARsFQna_fade 7200ms linear 0ms infinite;}.QARsFQna_14{stroke-dasharray:207 209;stroke-dashoffset:208;animation:QARsFQna_draw_14 7200ms linear 0ms infinite,QARsFQna_fade 7200ms linear 0ms infinite;}.QARsFQna_15{stroke-dasharray:416 418;stroke-dashoffset:417;animation:QARsFQna_draw_15 7200ms linear 0ms infinite,QARsFQna_fade 7200ms linear 0ms infinite;}.QARsFQna_16{stroke-dasharray:239 241;stroke-dashoffset:240;animation:QARsFQna_draw_16 7200ms linear 0ms infinite,QARsFQna_fade 7200ms linear 0ms infinite;}.QARsFQna_17{stroke-dasharray:427 429;stroke-dashoffset:428;animation:QARsFQna_draw_17 7200ms linear 0ms infinite,QARsFQna_fade 7200ms linear 0ms infinite;}.QARsFQna_18{stroke-dasharray:174 176;stroke-dashoffset:175;animation:QARsFQna_draw_18 7200ms linear 0ms infinite,QARsFQna_fade 7200ms linear 0ms infinite;}.QARsFQna_19{stroke-dasharray:335 337;stroke-dashoffset:336;animation:QARsFQna_draw_19 7200ms linear 0ms infinite,QARsFQna_fade 7200ms linear 0ms infinite;}.QARsFQna_20{stroke-dasharray:136 138;stroke-dashoffset:137;animation:QARsFQna_draw_20 7200ms linear 0ms infinite,QARsFQna_fade 7200ms linear 0ms infinite;}.QARsFQna_21{stroke-dasharray:269 271;stroke-dashoffset:270;animation:QARsFQna_draw_21 7200ms linear 0ms infinite,QARsFQna_fade 7200ms linear 0ms infinite;}.QARsFQna_22{stroke-dasharray:148 150;stroke-dashoffset:149;animation:QARsFQna_draw_22 7200ms linear 0ms infinite,QARsFQna_fade 7200ms linear 0ms infinite;}.QARsFQna_23{stroke-dasharray:296 298;stroke-dashoffset:297;animation:QARsFQna_draw_23 7200ms linear 0ms infinite,QARsFQna_fade 7200ms linear 0ms infinite;}.QARsFQna_24{stroke-dasharray:157 159;stroke-dashoffset:158;animation:QARsFQna_draw_24 7200ms linear 0ms infinite,QARsFQna_fade 7200ms linear 0ms infinite;}.QARsFQna_25{stroke-dasharray:314 316;stroke-dashoffset:315;animation:QARsFQna_draw_25 7200ms linear 0ms infinite,QARsFQna_fade 7200ms linear 0ms infinite;}.QARsFQna_26{stroke-dasharray:259 261;stroke-dashoffset:260;animation:QARsFQna_draw_26 7200ms linear 0ms infinite,QARsFQna_fade 7200ms linear 0ms infinite;}.QARsFQna_27{stroke-dasharray:509 511;stroke-dashoffset:510;animation:QARsFQna_draw_27 7200ms linear 0ms infinite,QARsFQna_fade 7200ms linear 0ms infinite;}.QARsFQna_28{stroke-dasharray:174 176;stroke-dashoffset:175;animation:QARsFQna_draw_28 7200ms linear 0ms infinite,QARsFQna_fade 7200ms linear 0ms infinite;}.QARsFQna_29{stroke-dasharray:335 337;stroke-dashoffset:336;animation:QARsFQna_draw_29 7200ms linear 0ms infinite,QARsFQna_fade 7200ms linear 0ms infinite;}.QARsFQna_30{stroke-dasharray:141 143;stroke-dashoffset:142;animation:QARsFQna_draw_30 7200ms linear 0ms infinite,QARsFQna_fade 7200ms linear 0ms infinite;}.QARsFQna_31{stroke-dasharray:280 282;stroke-dashoffset:281;animation:QARsFQna_draw_31 7200ms linear 0ms infinite,QARsFQna_fade 7200ms linear 0ms infinite;}.QARsFQna_32{stroke-dasharray:157 159;stroke-dashoffset:158;animation:QARsFQna_draw_32 7200ms linear 0ms infinite,QARsFQna_fade 7200ms linear 0ms infinite;}.QARsFQna_33{stroke-dasharray:314 316;stroke-dashoffset:315;animation:QARsFQna_draw_33 7200ms linear 0ms infinite,QARsFQna_fade 7200ms linear 0ms infinite;}.QARsFQna_34{stroke-dasharray:259 261;stroke-dashoffset:260;animation:QARsFQna_draw_34 7200ms linear 0ms infinite,QARsFQna_fade 7200ms linear 0ms infinite;}.QARsFQna_35{stroke-dasharray:509 511;stroke-dashoffset:510;animation:QARsFQna_draw_35 7200ms linear 0ms infinite,QARsFQna_fade 7200ms linear 0ms infinite;}.QARsFQna_36{stroke-dasharray:180 182;stroke-dashoffset:181;animation:QARsFQna_draw_36 7200ms linear 0ms infinite,QARsFQna_fade 7200ms linear 0ms infinite;}.QARsFQna_37{stroke-dasharray:358 360;stroke-dashoffset:359;animation:QARsFQna_draw_37 7200ms linear 0ms infinite,QARsFQna_fade 7200ms linear 0ms infinite;}.QARsFQna_38{stroke-dasharray:239 241;stroke-dashoffset:240;animation:QARsFQna_draw_38 7200ms linear 0ms infinite,QARsFQna_fade 7200ms linear 0ms infinite;}.QARsFQna_39{stroke-dasharray:427 429;stroke-dashoffset:428;animation:QARsFQna_draw_39 7200ms linear 0ms infinite,QARsFQna_fade 7200ms linear 0ms infinite;}.QARsFQna_40{stroke-dasharray:174 176;stroke-dashoffset:175;animation:QARsFQna_draw_40 7200ms linear 0ms infinite,QARsFQna_fade 7200ms linear 0ms infinite;}.QARsFQna_41{stroke-dasharray:335 337;stroke-dashoffset:336;animation:QARsFQna_draw_41 7200ms linear 0ms infinite,QARsFQna_fade 7200ms linear 0ms infinite;}.QARsFQna_42{stroke-dasharray:199 201;stroke-dashoffset:200;animation:QARsFQna_draw_42 7200ms linear 0ms infinite,QARsFQna_fade 7200ms linear 0ms infinite;}.QARsFQna_43{stroke-dasharray:399 401;stroke-dashoffset:400;animation:QARsFQna_draw_43 7200ms linear 0ms infinite,QARsFQna_fade 7200ms linear 0ms infinite;}.QARsFQna_44{stroke-dasharray:169 171;stroke-dashoffset:170;animation:QARsFQna_draw_44 7200ms linear 0ms infinite,QARsFQna_fade 7200ms linear 0ms infinite;}.QARsFQna_45{stroke-dasharray:321 323;stroke-dashoffset:322;animation:QARsFQna_draw_45 7200ms linear 0ms infinite,QARsFQna_fade 7200ms linear 0ms infinite;}.QARsFQna_46{stroke-dasharray:134 136;stroke-dashoffset:135;animation:QARsFQna_draw_46 7200ms linear 0ms infinite,QARsFQna_fade 7200ms linear 0ms infinite;}.QARsFQna_47{stroke-dasharray:266 268;stroke-dashoffset:267;animation:QARsFQna_draw_47 7200ms linear 0ms infinite,QARsFQna_fade 7200ms linear 0ms infinite;}.QARsFQna_48{stroke-dasharray:141 143;stroke-dashoffset:142;animation:QARsFQna_draw_48 7200ms linear 0ms infinite,QARsFQna_fade 7200ms linear 0ms infinite;}.QARsFQna_49{stroke-dasharray:280 282;stroke-dashoffset:281;animation:QARsFQna_draw_49 7200ms linear 0ms infinite,QARsFQna_fade 7200ms linear 0ms infinite;}.QARsFQna_50{stroke-dasharray:174 176;stroke-dashoffset:175;animation:QARsFQna_draw_50 7200ms linear 0ms infinite,QARsFQna_fade 7200ms linear 0ms infinite;}.QARsFQna_51{stroke-dasharray:335 337;stroke-dashoffset:336;animation:QARsFQna_draw_51 7200ms linear 0ms infinite,QARsFQna_fade 7200ms linear 0ms infinite;}@keyframes QARsFQna_draw{100%{stroke-dashoffset:0;}}@keyframes QARsFQna_fade{0%{stroke-opacity:1;}94.44444444444444%{stroke-opacity:1;}100%{stroke-opacity:0;}}@keyframes QARsFQna_draw_0{11.11111111111111%{stroke-dashoffset: 323}38.88888888888889%{ stroke-dashoffset: 0;}100%{ stroke-dashoffset: 0;}}@keyframes QARsFQna_draw_1{11.383442265795207%{stroke-dashoffset: 640}39.16122004357298%{ stroke-dashoffset: 0;}100%{ stroke-dashoffset: 0;}}@keyframes QARsFQna_draw_2{11.655773420479303%{stroke-dashoffset: 175}39.43355119825708%{ stroke-dashoffset: 0;}100%{ stroke-dashoffset: 0;}}@keyframes QARsFQna_draw_3{11.928104575163399%{stroke-dashoffset: 336}39.70588235294118%{ stroke-dashoffset: 0;}100%{ stroke-dashoffset: 0;}}@keyframes QARsFQna_draw_4{12.200435729847497%{stroke-dashoffset: 137}39.97821350762527%{ stroke-dashoffset: 0;}100%{ stroke-dashoffset: 0;}}@keyframes QARsFQna_draw_5{12.47276688453159%{stroke-dashoffset: 270}40.250544662309366%{ stroke-dashoffset: 0;}100%{ stroke-dashoffset: 0;}}@keyframes QARsFQna_draw_6{12.745098039215685%{stroke-dashoffset: 137}40.52287581699346%{ stroke-dashoffset: 0;}100%{ stroke-dashoffset: 0;}}@keyframes QARsFQna_draw_7{13.017429193899781%{stroke-dashoffset: 270}40.79520697167756%{ stroke-dashoffset: 0;}100%{ stroke-dashoffset: 0;}}@keyframes QARsFQna_draw_8{13.28976034858388%{stroke-dashoffset: 158}41.067538126361654%{ stroke-dashoffset: 0;}100%{ stroke-dashoffset: 0;}}@keyframes QARsFQna_draw_9{13.562091503267974%{stroke-dashoffset: 315}41.33986928104576%{ stroke-dashoffset: 0;}100%{ stroke-dashoffset: 0;}}@keyframes QARsFQna_draw_10{13.83442265795207%{stroke-dashoffset: 175}41.61220043572985%{ stroke-dashoffset: 0;}100%{ stroke-dashoffset: 0;}}@keyframes QARsFQna_draw_11{14.106753812636166%{stroke-dashoffset: 341}41.88453159041395%{ stroke-dashoffset: 0;}100%{ stroke-dashoffset: 0;}}@keyframes QARsFQna_draw_12{14.37908496732026%{stroke-dashoffset: 196}42.15686274509803%{ stroke-dashoffset: 0;}100%{ stroke-dashoffset: 0;}}@keyframes QARsFQna_draw_13{14.65141612200436%{stroke-dashoffset: 368}42.429193899782135%{ stroke-dashoffset: 0;}100%{ stroke-dashoffset: 0;}}@keyframes QARsFQna_draw_14{14.923747276688454%{stroke-dashoffset: 208}42.70152505446623%{ stroke-dashoffset: 0;}100%{ stroke-dashoffset: 0;}}@keyframes QARsFQna_draw_15{15.196078431372548%{stroke-dashoffset: 417}42.97385620915033%{ stroke-dashoffset: 0;}100%{ stroke-dashoffset: 0;}}@keyframes QARsFQna_draw_16{15.468409586056644%{stroke-dashoffset: 240}43.24618736383442%{ stroke-dashoffset: 0;}100%{ stroke-dashoffset: 0;}}@keyframes QARsFQna_draw_17{15.740740740740744%{stroke-dashoffset: 428}43.518518518518526%{ stroke-dashoffset: 0;}100%{ stroke-dashoffset: 0;}}@keyframes QARsFQna_draw_18{16.013071895424837%{stroke-dashoffset: 175}43.790849673202615%{ stroke-dashoffset: 0;}100%{ stroke-dashoffset: 0;}}@keyframes QARsFQna_draw_19{16.285403050108933%{stroke-dashoffset: 336}44.06318082788671%{ stroke-dashoffset: 0;}100%{ stroke-dashoffset: 0;}}@keyframes QARsFQna_draw_20{16.55773420479303%{stroke-dashoffset: 137}44.3355119825708%{ stroke-dashoffset: 0;}100%{ stroke-dashoffset: 0;}}@keyframes QARsFQna_draw_21{16.83006535947712%{stroke-dashoffset: 270}44.6078431372549%{ stroke-dashoffset: 0;}100%{ stroke-dashoffset: 0;}}@keyframes QARsFQna_draw_22{17.10239651416122%{stroke-dashoffset: 149}44.880174291939%{ stroke-dashoffset: 0;}100%{ stroke-dashoffset: 0;}}@keyframes QARsFQna_draw_23{17.374727668845317%{stroke-dashoffset: 297}45.152505446623096%{ stroke-dashoffset: 0;}100%{ stroke-dashoffset: 0;}}@keyframes QARsFQna_draw_24{17.64705882352941%{stroke-dashoffset: 158}45.42483660130719%{ stroke-dashoffset: 0;}100%{ stroke-dashoffset: 0;}}@keyframes QARsFQna_draw_25{17.91938997821351%{stroke-dashoffset: 315}45.69716775599128%{ stroke-dashoffset: 0;}100%{ stroke-dashoffset: 0;}}@keyframes QARsFQna_draw_26{18.191721132897605%{stroke-dashoffset: 260}45.969498910675384%{ stroke-dashoffset: 0;}100%{ stroke-dashoffset: 0;}}@keyframes QARsFQna_draw_27{18.4640522875817%{stroke-dashoffset: 510}46.24183006535948%{ stroke-dashoffset: 0;}100%{ stroke-dashoffset: 0;}}@keyframes QARsFQna_draw_28{18.736383442265794%{stroke-dashoffset: 175}46.51416122004357%{ stroke-dashoffset: 0;}100%{ stroke-dashoffset: 0;}}@keyframes QARsFQna_draw_29{19.00871459694989%{stroke-dashoffset: 336}46.786492374727665%{ stroke-dashoffset: 0;}100%{ stroke-dashoffset: 0;}}@keyframes QARsFQna_draw_30{19.28104575163399%{stroke-dashoffset: 142}47.05882352941176%{ stroke-dashoffset: 0;}100%{ stroke-dashoffset: 0;}}@keyframes QARsFQna_draw_31{19.553376906318086%{stroke-dashoffset: 281}47.331154684095864%{ stroke-dashoffset: 0;}100%{ stroke-dashoffset: 0;}}@keyframes QARsFQna_draw_32{19.825708061002178%{stroke-dashoffset: 158}47.60348583877996%{ stroke-dashoffset: 0;}100%{ stroke-dashoffset: 0;}}@keyframes QARsFQna_draw_33{20.098039215686274%{stroke-dashoffset: 315}47.875816993464056%{ stroke-dashoffset: 0;}100%{ stroke-dashoffset: 0;}}@keyframes QARsFQna_draw_34{20.370370370370374%{stroke-dashoffset: 260}48.14814814814815%{ stroke-dashoffset: 0;}100%{ stroke-dashoffset: 0;}}@keyframes QARsFQna_draw_35{20.64270152505447%{stroke-dashoffset: 510}48.42047930283225%{ stroke-dashoffset: 0;}100%{ stroke-dashoffset: 0;}}@keyframes QARsFQna_draw_36{20.915032679738562%{stroke-dashoffset: 181}48.69281045751634%{ stroke-dashoffset: 0;}100%{ stroke-dashoffset: 0;}}@keyframes QARsFQna_draw_37{21.187363834422655%{stroke-dashoffset: 359}48.96514161220043%{ stroke-dashoffset: 0;}100%{ stroke-dashoffset: 0;}}@keyframes QARsFQna_draw_38{21.459694989106755%{stroke-dashoffset: 240}49.23747276688453%{ stroke-dashoffset: 0;}100%{ stroke-dashoffset: 0;}}@keyframes QARsFQna_draw_39{21.73202614379085%{stroke-dashoffset: 428}49.50980392156863%{ stroke-dashoffset: 0;}100%{ stroke-dashoffset: 0;}}@keyframes QARsFQna_draw_40{22.004357298474947%{stroke-dashoffset: 175}49.78213507625273%{ stroke-dashoffset: 0;}100%{ stroke-dashoffset: 0;}}@keyframes QARsFQna_draw_41{22.276688453159043%{stroke-dashoffset: 336}50.054466230936825%{ stroke-dashoffset: 0;}100%{ stroke-dashoffset: 0;}}@keyframes QARsFQna_draw_42{22.54901960784314%{stroke-dashoffset: 200}50.326797385620914%{ stroke-dashoffset: 0;}100%{ stroke-dashoffset: 0;}}@keyframes QARsFQna_draw_43{22.821350762527235%{stroke-dashoffset: 400}50.599128540305%{ stroke-dashoffset: 0;}100%{ stroke-dashoffset: 0;}}@keyframes QARsFQna_draw_44{23.093681917211327%{stroke-dashoffset: 170}50.871459694989106%{ stroke-dashoffset: 0;}100%{ stroke-dashoffset: 0;}}@keyframes QARsFQna_draw_45{23.366013071895427%{stroke-dashoffset: 322}51.14379084967321%{ stroke-dashoffset: 0;}100%{ stroke-dashoffset: 0;}}@keyframes QARsFQna_draw_46{23.638344226579523%{stroke-dashoffset: 135}51.4161220043573%{ stroke-dashoffset: 0;}100%{ stroke-dashoffset: 0;}}@keyframes QARsFQna_draw_47{23.910675381263616%{stroke-dashoffset: 267}51.688453159041394%{ stroke-dashoffset: 0;}100%{ stroke-dashoffset: 0;}}@keyframes QARsFQna_draw_48{24.18300653594771%{stroke-dashoffset: 142}51.96078431372548%{ stroke-dashoffset: 0;}100%{ stroke-dashoffset: 0;}}@keyframes QARsFQna_draw_49{24.45533769063181%{stroke-dashoffset: 281}52.233115468409586%{ stroke-dashoffset: 0;}100%{ stroke-dashoffset: 0;}}@keyframes QARsFQna_draw_50{24.727668845315907%{stroke-dashoffset: 175}52.50544662309369%{ stroke-dashoffset: 0;}100%{ stroke-dashoffset: 0;}}@keyframes QARsFQna_draw_51{25%{stroke-dashoffset: 336}52.77777777777778%{ stroke-dashoffset: 0;}100%{ stroke-dashoffset: 0;}}</style></svg>
